# xmcd CD database file
#
# Track frame offsets:
#	150
#	5832
#	37731
#	59572
#	87666
#	101912
#	129859
#	151286
#	177715
#	203984
#	229223
#	239571
#	263435
#	287982
#
# Disc length: 4206 seconds
#
# Revision: 3
# Processed by: cddbd v1.5.2PL0 Copyright (c) Steve Scherf et al.
# Submitted via: CDex 1.51
#
DISCID=cb106c0e
DTITLE=Ray Charles - At The Olympia, 2000-11-22
DYEAR=2000
DGENRE=Blues
TTITLE0=Blues For Big Scotia
TTITLE1=Just The Way You Look Tonight
TTITLE2=Route 66
TTITLE3=Song For You
TTITLE4=Hallelujah I Love Her So
TTITLE5=Georgia On My Mind
TTITLE6=Stranger In My Own Home Town
TTITLE7=Angelina
TTITLE8=I've Got A Woman
TTITLE9=Hey Girl
TTITLE10=Almost Like Being In Love Again
TTITLE11=Just For A Thrill
TTITLE12=It Had To Be You
TTITLE13=What'd I Say
EXTD=YEAR: 2000
EXTT0=
EXTT1=
EXTT2=
EXTT3=
EXTT4=
EXTT5=
EXTT6=
EXTT7=
EXTT8=
EXTT9=
EXTT10=
EXTT11=
EXTT12=
EXTT13=
PLAYORDER=
